<?xml version="1.0" encoding="UTF-8" standalone="no"?>
<!DOCTYPE svg PUBLIC "-//W3C//DTD SVG 1.1//EN"
 "http://www.w3.org/Graphics/SVG/1.1/DTD/svg11.dtd">
<!-- Generated by graphviz version 5.0.0 (20220707.1540)
 -->
<!-- Title: dependencies Pages: 1 -->
<svg width="1532pt" height="247pt"
 viewBox="0.00 0.00 1532.00 246.80" xmlns="http://www.w3.org/2000/svg" xmlns:xlink="http://www.w3.org/1999/xlink">
<g id="graph0" class="graph" transform="scale(1 1) rotate(0) translate(4 242.8)">
<title>dependencies</title>
<polygon fill="white" stroke="transparent" points="-4,4 -4,-242.8 1528,-242.8 1528,4 -4,4"/>
<text text-anchor="middle" x="762" y="-8.2" font-family="sans-serif" font-size="14.00">dependencies</text>
<g id="clust1" class="cluster">
<title>cluster_AppModule</title>
<polygon fill="none" stroke="black" stroke-dasharray="1,5" points="8,-32.8 8,-230.8 298,-230.8 298,-32.8 8,-32.8"/>
</g>
<g id="clust2" class="cluster">
<title>cluster_AppModule_declarations</title>
<polygon fill="none" stroke="black" points="168,-40.8 168,-92.8 290,-92.8 290,-40.8 168,-40.8"/>
</g>
<g id="clust4" class="cluster">
<title>cluster_AppModule_imports</title>
<polygon fill="none" stroke="black" points="16,-40.8 16,-92.8 160,-92.8 160,-40.8 16,-40.8"/>
</g>
<g id="clust6" class="cluster">
<title>cluster_AppModule_bootstrap</title>
<polygon fill="none" stroke="black" points="96,-170.8 96,-222.8 220,-222.8 220,-170.8 96,-170.8"/>
</g>
<g id="clust14" class="cluster">
<title>cluster_EnergiPageModule</title>
<polygon fill="none" stroke="black" stroke-dasharray="1,5" points="306,-32.8 306,-157.8 612,-157.8 612,-32.8 306,-32.8"/>
</g>
<g id="clust15" class="cluster">
<title>cluster_EnergiPageModule_declarations</title>
<polygon fill="none" stroke="black" points="508,-40.8 508,-92.8 604,-92.8 604,-40.8 508,-40.8"/>
</g>
<g id="clust17" class="cluster">
<title>cluster_EnergiPageModule_imports</title>
<polygon fill="none" stroke="black" points="314,-40.8 314,-92.8 500,-92.8 500,-40.8 314,-40.8"/>
</g>
<g id="clust27" class="cluster">
<title>cluster_HomePageModule</title>
<polygon fill="none" stroke="black" stroke-dasharray="1,5" points="620,-32.8 620,-157.8 920,-157.8 920,-32.8 620,-32.8"/>
</g>
<g id="clust28" class="cluster">
<title>cluster_HomePageModule_declarations</title>
<polygon fill="none" stroke="black" points="818,-40.8 818,-92.8 912,-92.8 912,-40.8 818,-40.8"/>
</g>
<g id="clust30" class="cluster">
<title>cluster_HomePageModule_imports</title>
<polygon fill="none" stroke="black" points="628,-40.8 628,-92.8 810,-92.8 810,-40.8 628,-40.8"/>
</g>
<g id="clust40" class="cluster">
<title>cluster_LandPageModule</title>
<polygon fill="none" stroke="black" stroke-dasharray="1,5" points="928,-32.8 928,-157.8 1216,-157.8 1216,-32.8 928,-32.8"/>
</g>
<g id="clust41" class="cluster">
<title>cluster_LandPageModule_declarations</title>
<polygon fill="none" stroke="black" points="1120,-40.8 1120,-92.8 1208,-92.8 1208,-40.8 1120,-40.8"/>
</g>
<g id="clust43" class="cluster">
<title>cluster_LandPageModule_imports</title>
<polygon fill="none" stroke="black" points="936,-40.8 936,-92.8 1112,-92.8 1112,-40.8 936,-40.8"/>
</g>
<g id="clust53" class="cluster">
<title>cluster_VandPageModule</title>
<polygon fill="none" stroke="black" stroke-dasharray="1,5" points="1224,-32.8 1224,-157.8 1516,-157.8 1516,-32.8 1224,-32.8"/>
</g>
<g id="clust54" class="cluster">
<title>cluster_VandPageModule_declarations</title>
<polygon fill="none" stroke="black" points="1418,-40.8 1418,-92.8 1508,-92.8 1508,-40.8 1418,-40.8"/>
</g>
<g id="clust56" class="cluster">
<title>cluster_VandPageModule_imports</title>
<polygon fill="none" stroke="black" points="1232,-40.8 1232,-92.8 1410,-92.8 1410,-40.8 1232,-40.8"/>
</g>
<!-- AppComponent -->
<g id="node1" class="node">
<title>AppComponent</title>
<polygon fill="#ffffb3" stroke="black" points="281.94,-84.8 176.06,-84.8 176.06,-48.8 281.94,-48.8 281.94,-84.8"/>
<text text-anchor="middle" x="229" y="-62.6" font-family="Times,serif" font-size="14.00">AppComponent</text>
</g>
<!-- AppModule -->
<g id="node2" class="node">
<title>AppModule</title>
<polygon fill="#8dd3c7" stroke="black" points="199.66,-149.8 196.66,-153.8 175.66,-153.8 172.66,-149.8 116.34,-149.8 116.34,-113.8 199.66,-113.8 199.66,-149.8"/>
<text text-anchor="middle" x="158" y="-127.6" font-family="Times,serif" font-size="14.00">AppModule</text>
</g>
<!-- AppComponent&#45;&gt;AppModule -->
<g id="edge1" class="edge">
<title>AppComponent&#45;&gt;AppModule</title>
<path fill="none" stroke="black" d="M188.06,-84.91C188.06,-84.91 188.06,-103.79 188.06,-103.79"/>
<polygon fill="black" stroke="black" points="184.56,-103.79 188.06,-113.79 191.56,-103.79 184.56,-103.79"/>
</g>
<!-- AppComponent  -->
<g id="node4" class="node">
<title>AppComponent </title>
<polygon fill="#80b1d3" stroke="black" points="212.44,-214.8 103.56,-214.8 103.56,-178.8 212.44,-178.8 212.44,-214.8"/>
<text text-anchor="middle" x="158" y="-192.6" font-family="Times,serif" font-size="14.00">AppComponent </text>
</g>
<!-- AppModule&#45;&gt;AppComponent  -->
<g id="edge3" class="edge">
<title>AppModule&#45;&gt;AppComponent </title>
<path fill="none" stroke="black" stroke-dasharray="1,5" d="M158,-149.91C158,-149.91 158,-168.79 158,-168.79"/>
<polygon fill="black" stroke="black" points="154.5,-168.79 158,-178.79 161.5,-168.79 154.5,-168.79"/>
</g>
<!-- AppRoutingModule -->
<g id="node3" class="node">
<title>AppRoutingModule</title>
<polygon fill="#8dd3c7" stroke="black" points="152.28,-84.8 149.28,-88.8 128.28,-88.8 125.28,-84.8 23.72,-84.8 23.72,-48.8 152.28,-48.8 152.28,-84.8"/>
<text text-anchor="middle" x="88" y="-62.6" font-family="Times,serif" font-size="14.00">AppRoutingModule</text>
</g>
<!-- AppRoutingModule&#45;&gt;AppModule -->
<g id="edge2" class="edge">
<title>AppRoutingModule&#45;&gt;AppModule</title>
<path fill="none" stroke="black" d="M134.28,-84.91C134.28,-84.91 134.28,-103.79 134.28,-103.79"/>
<polygon fill="black" stroke="black" points="130.78,-103.79 134.28,-113.79 137.78,-103.79 130.78,-103.79"/>
</g>
<!-- EnergiPage -->
<g id="node5" class="node">
<title>EnergiPage</title>
<polygon fill="#ffffb3" stroke="black" points="596.03,-84.8 515.97,-84.8 515.97,-48.8 596.03,-48.8 596.03,-84.8"/>
<text text-anchor="middle" x="556" y="-62.6" font-family="Times,serif" font-size="14.00">EnergiPage</text>
</g>
<!-- EnergiPageModule -->
<g id="node6" class="node">
<title>EnergiPageModule</title>
<polygon fill="#8dd3c7" stroke="black" points="536.08,-149.8 533.08,-153.8 512.08,-153.8 509.08,-149.8 411.92,-149.8 411.92,-113.8 536.08,-113.8 536.08,-149.8"/>
<text text-anchor="middle" x="474" y="-127.6" font-family="Times,serif" font-size="14.00">EnergiPageModule</text>
</g>
<!-- EnergiPage&#45;&gt;EnergiPageModule -->
<g id="edge4" class="edge">
<title>EnergiPage&#45;&gt;EnergiPageModule</title>
<path fill="none" stroke="black" d="M525.89,-84.91C525.89,-84.91 525.89,-103.79 525.89,-103.79"/>
<polygon fill="black" stroke="black" points="522.39,-103.79 525.89,-113.79 529.39,-103.79 522.39,-103.79"/>
</g>
<!-- EnergiPageRoutingModule -->
<g id="node7" class="node">
<title>EnergiPageRoutingModule</title>
<polygon fill="#8dd3c7" stroke="black" points="491.7,-84.8 488.7,-88.8 467.7,-88.8 464.7,-84.8 322.3,-84.8 322.3,-48.8 491.7,-48.8 491.7,-84.8"/>
<text text-anchor="middle" x="407" y="-62.6" font-family="Times,serif" font-size="14.00">EnergiPageRoutingModule</text>
</g>
<!-- EnergiPageRoutingModule&#45;&gt;EnergiPageModule -->
<g id="edge5" class="edge">
<title>EnergiPageRoutingModule&#45;&gt;EnergiPageModule</title>
<path fill="none" stroke="black" d="M451.78,-84.91C451.78,-84.91 451.78,-103.79 451.78,-103.79"/>
<polygon fill="black" stroke="black" points="448.28,-103.79 451.78,-113.79 455.28,-103.79 448.28,-103.79"/>
</g>
<!-- HomePage -->
<g id="node8" class="node">
<title>HomePage</title>
<polygon fill="#ffffb3" stroke="black" points="903.93,-84.8 826.07,-84.8 826.07,-48.8 903.93,-48.8 903.93,-84.8"/>
<text text-anchor="middle" x="865" y="-62.6" font-family="Times,serif" font-size="14.00">HomePage</text>
</g>
<!-- HomePageModule -->
<g id="node9" class="node">
<title>HomePageModule</title>
<polygon fill="#8dd3c7" stroke="black" points="845.48,-149.8 842.48,-153.8 821.48,-153.8 818.48,-149.8 724.52,-149.8 724.52,-113.8 845.48,-113.8 845.48,-149.8"/>
<text text-anchor="middle" x="785" y="-127.6" font-family="Times,serif" font-size="14.00">HomePageModule</text>
</g>
<!-- HomePage&#45;&gt;HomePageModule -->
<g id="edge6" class="edge">
<title>HomePage&#45;&gt;HomePageModule</title>
<path fill="none" stroke="black" d="M835.89,-84.91C835.89,-84.91 835.89,-103.79 835.89,-103.79"/>
<polygon fill="black" stroke="black" points="832.39,-103.79 835.89,-113.79 839.39,-103.79 832.39,-103.79"/>
</g>
<!-- HomePageRoutingModule -->
<g id="node10" class="node">
<title>HomePageRoutingModule</title>
<polygon fill="#8dd3c7" stroke="black" points="802.1,-84.8 799.1,-88.8 778.1,-88.8 775.1,-84.8 635.9,-84.8 635.9,-48.8 802.1,-48.8 802.1,-84.8"/>
<text text-anchor="middle" x="719" y="-62.6" font-family="Times,serif" font-size="14.00">HomePageRoutingModule</text>
</g>
<!-- HomePageRoutingModule&#45;&gt;HomePageModule -->
<g id="edge7" class="edge">
<title>HomePageRoutingModule&#45;&gt;HomePageModule</title>
<path fill="none" stroke="black" d="M763.28,-84.91C763.28,-84.91 763.28,-103.79 763.28,-103.79"/>
<polygon fill="black" stroke="black" points="759.78,-103.79 763.28,-113.79 766.78,-103.79 759.78,-103.79"/>
</g>
<!-- LandPage -->
<g id="node11" class="node">
<title>LandPage</title>
<polygon fill="#ffffb3" stroke="black" points="1199.98,-84.8 1128.02,-84.8 1128.02,-48.8 1199.98,-48.8 1199.98,-84.8"/>
<text text-anchor="middle" x="1164" y="-62.6" font-family="Times,serif" font-size="14.00">LandPage</text>
</g>
<!-- LandPageModule -->
<g id="node12" class="node">
<title>LandPageModule</title>
<polygon fill="#8dd3c7" stroke="black" points="1144.53,-149.8 1141.53,-153.8 1120.53,-153.8 1117.53,-149.8 1029.47,-149.8 1029.47,-113.8 1144.53,-113.8 1144.53,-149.8"/>
<text text-anchor="middle" x="1087" y="-127.6" font-family="Times,serif" font-size="14.00">LandPageModule</text>
</g>
<!-- LandPage&#45;&gt;LandPageModule -->
<g id="edge8" class="edge">
<title>LandPage&#45;&gt;LandPageModule</title>
<path fill="none" stroke="black" d="M1136.39,-84.91C1136.39,-84.91 1136.39,-103.79 1136.39,-103.79"/>
<polygon fill="black" stroke="black" points="1132.89,-103.79 1136.39,-113.79 1139.89,-103.79 1132.89,-103.79"/>
</g>
<!-- LandPageRoutingModule -->
<g id="node13" class="node">
<title>LandPageRoutingModule</title>
<polygon fill="#8dd3c7" stroke="black" points="1104.15,-84.8 1101.15,-88.8 1080.15,-88.8 1077.15,-84.8 943.85,-84.8 943.85,-48.8 1104.15,-48.8 1104.15,-84.8"/>
<text text-anchor="middle" x="1024" y="-62.6" font-family="Times,serif" font-size="14.00">LandPageRoutingModule</text>
</g>
<!-- LandPageRoutingModule&#45;&gt;LandPageModule -->
<g id="edge9" class="edge">
<title>LandPageRoutingModule&#45;&gt;LandPageModule</title>
<path fill="none" stroke="black" d="M1066.78,-84.91C1066.78,-84.91 1066.78,-103.79 1066.78,-103.79"/>
<polygon fill="black" stroke="black" points="1063.28,-103.79 1066.78,-113.79 1070.28,-103.79 1063.28,-103.79"/>
</g>
<!-- VandPage -->
<g id="node14" class="node">
<title>VandPage</title>
<polygon fill="#ffffb3" stroke="black" points="1499.54,-84.8 1426.46,-84.8 1426.46,-48.8 1499.54,-48.8 1499.54,-84.8"/>
<text text-anchor="middle" x="1463" y="-62.6" font-family="Times,serif" font-size="14.00">VandPage</text>
</g>
<!-- VandPageModule -->
<g id="node15" class="node">
<title>VandPageModule</title>
<polygon fill="#8dd3c7" stroke="black" points="1443.59,-149.8 1440.59,-153.8 1419.59,-153.8 1416.59,-149.8 1326.41,-149.8 1326.41,-113.8 1443.59,-113.8 1443.59,-149.8"/>
<text text-anchor="middle" x="1385" y="-127.6" font-family="Times,serif" font-size="14.00">VandPageModule</text>
</g>
<!-- VandPage&#45;&gt;VandPageModule -->
<g id="edge10" class="edge">
<title>VandPage&#45;&gt;VandPageModule</title>
<path fill="none" stroke="black" d="M1434.89,-84.91C1434.89,-84.91 1434.89,-103.79 1434.89,-103.79"/>
<polygon fill="black" stroke="black" points="1431.39,-103.79 1434.89,-113.79 1438.39,-103.79 1431.39,-103.79"/>
</g>
<!-- VandPageRoutingModule -->
<g id="node16" class="node">
<title>VandPageRoutingModule</title>
<polygon fill="#8dd3c7" stroke="black" points="1402.21,-84.8 1399.21,-88.8 1378.21,-88.8 1375.21,-84.8 1239.79,-84.8 1239.79,-48.8 1402.21,-48.8 1402.21,-84.8"/>
<text text-anchor="middle" x="1321" y="-62.6" font-family="Times,serif" font-size="14.00">VandPageRoutingModule</text>
</g>
<!-- VandPageRoutingModule&#45;&gt;VandPageModule -->
<g id="edge11" class="edge">
<title>VandPageRoutingModule&#45;&gt;VandPageModule</title>
<path fill="none" stroke="black" d="M1364.28,-84.91C1364.28,-84.91 1364.28,-103.79 1364.28,-103.79"/>
<polygon fill="black" stroke="black" points="1360.78,-103.79 1364.28,-113.79 1367.78,-103.79 1360.78,-103.79"/>
</g>
</g>
</svg>
