<svg xmlns="http://www.w3.org/2000/svg" width="97.464" height="97.461" viewBox="0 0 97.464 97.461"><g transform="translate(1504.773 -254.075)" opacity="0.998"><path d="M84.935,77.968a28,28,0,1,0,28,28,28,28,0,0,0-28-28M82.862,89.029a2.083,2.083,0,0,1,4.159,0v9.614a2.084,2.084,0,0,1-4.159,0Zm2.078,31.288a14.566,14.566,0,0,1-4.329-28.473v5.422a9.533,9.533,0,1,0,8.632-.013V91.837a14.565,14.565,0,0,1-4.3,28.481" transform="translate(-1540.982 197.077)" fill="#fcc30b"/><path d="M56.061,101.709a2.342,2.342,0,0,0-2.151-2.3H41.647a2.307,2.307,0,0,0,0,4.605H53.91a2.347,2.347,0,0,0,2.151-2.307" transform="translate(-1544.251 201.092)" fill="#fcc30b"/><path d="M124.186,101.709a2.342,2.342,0,0,0-2.151-2.3H109.772a2.307,2.307,0,0,0,0,4.605h12.263a2.347,2.347,0,0,0,2.151-2.307" transform="translate(-1531.495 201.092)" fill="#fcc30b"/><path d="M80.893,76.887a2.343,2.343,0,0,0,2.3-2.151V62.473a2.307,2.307,0,0,0-4.605,0V74.736a2.349,2.349,0,0,0,2.308,2.151" transform="translate(-1536.928 193.77)" fill="#fcc30b"/><path d="M80.893,145.011a2.342,2.342,0,0,0,2.3-2.151V130.6a2.307,2.307,0,0,0-4.605,0V142.86a2.349,2.349,0,0,0,2.308,2.151" transform="translate(-1536.928 206.525)" fill="#fcc30b"/><path d="M59.339,89.378a2.338,2.338,0,0,0-.725-3.063L47.972,80.224a2.306,2.306,0,0,0-2.287,4l10.642,6.09a2.345,2.345,0,0,0,3.012-.933" transform="translate(-1543.281 197.455)" fill="#fcc30b"/><path d="M118.466,123.217a2.344,2.344,0,0,0-.725-3.063l-10.642-6.09a2.307,2.307,0,0,0-2.288,4l10.642,6.09a2.346,2.346,0,0,0,3.013-.933" transform="translate(-1532.21 203.791)" fill="#fcc30b"/><path d="M94.163,80.167a2.342,2.342,0,0,0,3.062-.725L103.315,68.8a2.306,2.306,0,0,0-4-2.288L93.229,77.152a2.347,2.347,0,0,0,.934,3.014" transform="translate(-1534.23 194.74)" fill="#fcc30b"/><path d="M60.325,139.293a2.341,2.341,0,0,0,3.062-.727l6.091-10.641a2.307,2.307,0,0,0-4-2.289l-6.091,10.642a2.348,2.348,0,0,0,.934,3.014" transform="translate(-1540.566 205.81)" fill="#fcc30b"/><path d="M68.515,80.188a2.34,2.34,0,0,0,.919-3.011l-6.112-10.63a2.306,2.306,0,0,0-3.99,2.3l6.111,10.628a2.349,2.349,0,0,0,3.073.717" transform="translate(-1540.578 194.747)" fill="#fcc30b"/><path d="M102.475,139.244a2.341,2.341,0,0,0,.92-3.01L97.283,125.6a2.306,2.306,0,0,0-3.99,2.3L99.4,138.529a2.348,2.348,0,0,0,3.071.715" transform="translate(-1534.219 205.804)" fill="#fcc30b"/><path d="M104.049,89.341a2.341,2.341,0,0,0,3.01.919l10.628-6.112a2.305,2.305,0,0,0-2.293-3.991l-10.629,6.112a2.347,2.347,0,0,0-.716,3.073" transform="translate(-1532.216 197.442)" fill="#fcc30b"/><path d="M44.991,123.3a2.341,2.341,0,0,0,3.01.919l10.628-6.113a2.306,2.306,0,0,0-2.293-3.991l-10.629,6.112a2.35,2.35,0,0,0-.716,3.074" transform="translate(-1543.274 203.801)" fill="#fcc30b"/></g></svg>