<svg id="Component_7_2" data-name="Component 7 – 2" xmlns="http://www.w3.org/2000/svg" xmlns:xlink="http://www.w3.org/1999/xlink" width="480.374" height="479.025" viewBox="0 0 480.374 479.025">
  <defs>
    <clipPath id="clip-path">
      <rect id="Rectangle_736" data-name="Rectangle 736" width="480.374" height="479.025" fill="none"/>
    </clipPath>
  </defs>
  <g id="Group_244" data-name="Group 244" clip-path="url(#clip-path)">
    <path id="Path_97" data-name="Path 97" d="M247.232,39.42v86.571a110.993,110.993,0,0,1,27.669,5.342L305.987,50.54a196.961,196.961,0,0,0-58.755-11.12" fill="#e3243b"/>
    <path id="Path_98" data-name="Path 98" d="M277.021,29.831a15.439,15.439,0,1,0-8.58-20.077,15.439,15.439,0,0,0,8.58,20.077" fill="#e3243b"/>
    <path id="Path_99" data-name="Path 99" d="M175.182,50.2l31.3,80.737a110.738,110.738,0,0,1,28.246-5.026V39.35A197.417,197.417,0,0,0,175.182,50.2" fill="#19486a"/>
    <path id="Path_100" data-name="Path 100" d="M198.1,30.878A15.439,15.439,0,1,0,182.6,15.5a15.438,15.438,0,0,0,15.5,15.381" fill="#19486a"/>
    <path id="Path_101" data-name="Path 101" d="M163.5,54.673a198.271,198.271,0,0,0-51.019,31.246l58.324,63.96a112,112,0,0,1,23.977-14.51Z" fill="#00689d"/>
    <path id="Path_102" data-name="Path 102" d="M127.05,59.973a15.439,15.439,0,1,0-20-8.765,15.439,15.439,0,0,0,20,8.765" fill="#00689d"/>
    <path id="Path_103" data-name="Path 103" d="M103.16,94.268a199.46,199.46,0,0,0-37,48.164l77.512,38.611a112.768,112.768,0,0,1,17.774-22.865Z" fill="#56c02b"/>
    <path id="Path_104" data-name="Path 104" d="M71.3,91.339a15.439,15.439,0,1,0-.97,21.812,15.438,15.438,0,0,0,.97-21.812" fill="#56c02b"/>
    <path id="Path_105" data-name="Path 105" d="M43.4,212.192l86.27,7.737a110.519,110.519,0,0,1,8.255-27.769L60.492,153.581A196.915,196.915,0,0,0,43.4,212.192" fill="#0a97d9"/>
    <path id="Path_106" data-name="Path 106" d="M30.706,161.113a15.439,15.439,0,1,0,6.744,20.766,15.439,15.439,0,0,0-6.744-20.766" fill="#0a97d9"/>
    <path id="Path_107" data-name="Path 107" d="M128.408,232.364l-86.192-7.717c-.27,4.273-.435,8.585-.435,12.932a198.523,198.523,0,0,0,5.869,47.943L130.9,261.641a111.782,111.782,0,0,1-2.621-24.062c0-1.742.058-3.484.133-5.215" fill="#3f7e44"/>
    <path id="Path_108" data-name="Path 108" d="M17.024,242.857A15.439,15.439,0,1,0,30.8,259.8a15.439,15.439,0,0,0-13.773-16.942" fill="#3f7e44"/>
    <path id="Path_109" data-name="Path 109" d="M51.079,297.557a197.474,197.474,0,0,0,27.476,54.926l68.9-52.359a111.219,111.219,0,0,1-13.191-26.439Z" fill="#bf8b2e"/>
    <path id="Path_110" data-name="Path 110" d="M34.108,323.162A15.439,15.439,0,1,0,53.06,334a15.439,15.439,0,0,0-18.952-10.841" fill="#bf8b2e"/>
    <path id="Path_111" data-name="Path 111" d="M155.038,310.07,86.146,362.429a199.864,199.864,0,0,0,44.989,40.755l45.5-73.6a112.723,112.723,0,0,1-21.6-19.512" fill="#fd9d24"/>
    <path id="Path_112" data-name="Path 112" d="M79.214,392.264a15.439,15.439,0,1,0,21.607,3.136,15.438,15.438,0,0,0-21.607-3.136" fill="#fd9d24"/>
    <path id="Path_113" data-name="Path 113" d="M141.772,409.754a197.328,197.328,0,0,0,56.962,21.773L214.747,346.5a111.187,111.187,0,0,1-27.446-10.38Z" fill="#dd1367"/>
    <path id="Path_114" data-name="Path 114" d="M166.921,435.177a15.439,15.439,0,1,0,4.86,21.286,15.439,15.439,0,0,0-4.86-21.286" fill="#dd1367"/>
    <path id="Path_115" data-name="Path 115" d="M272.231,433.267,256.21,348.221a110.911,110.911,0,0,1-29.141.4l-16.03,85.124a199.2,199.2,0,0,0,61.192-.482" fill="#fd6925"/>
    <path id="Path_116" data-name="Path 116" d="M243.958,448.429a15.439,15.439,0,1,0,12.2,18.105,15.439,15.439,0,0,0-12.2-18.105" fill="#fd6925"/>
    <path id="Path_117" data-name="Path 117" d="M294.987,334.96a111.41,111.41,0,0,1-26.521,10.776L284.5,430.857a196.815,196.815,0,0,0,55.925-22.313Z" fill="#a21942"/>
    <path id="Path_118" data-name="Path 118" d="M322.237,431.96a15.439,15.439,0,1,0,17.906,12.492,15.438,15.438,0,0,0-17.906-12.492" fill="#a21942"/>
    <path id="Path_119" data-name="Path 119" d="M395.42,360.378l-68.957-52a112.97,112.97,0,0,1-20.992,19.746L350.917,401.7a199.626,199.626,0,0,0,44.5-41.327" fill="#fcc30b"/>
    <path id="Path_120" data-name="Path 120" d="M407.29,394.969a15.439,15.439,0,1,0-5.2,21.206,15.438,15.438,0,0,0,5.2-21.206" fill="#fcc30b"/>
    <path id="Path_121" data-name="Path 121" d="M346.015,273.415a111.837,111.837,0,0,1-12.1,24.912l69.11,52.129a197.376,197.376,0,0,0,26.157-53.14Z" fill="#26bde2"/>
    <path id="Path_122" data-name="Path 122" d="M451.757,326.137a15.439,15.439,0,1,0,2.79,21.655,15.44,15.44,0,0,0-2.79-21.655" fill="#26bde2"/>
    <path id="Path_123" data-name="Path 123" d="M351.815,233.548c.047,1.348.078,2.685.078,4.031a110.725,110.725,0,0,1-2.562,23.783l83.235,23.915a197.708,197.708,0,0,0,5.819-47.7c0-4.082-.136-8.134-.386-12.17Z" fill="#ff3a21"/>
    <path id="Path_124" data-name="Path 124" d="M469.326,244a15.439,15.439,0,1,0,10.4,19.195A15.439,15.439,0,0,0,469.326,244" fill="#ff3a21"/>
    <path id="Path_125" data-name="Path 125" d="M342.933,193.726a110.909,110.909,0,0,1,7.756,27.371l86.173-8.134A196.584,196.584,0,0,0,420.4,155.11Z" fill="#c5192d"/>
    <path id="Path_126" data-name="Path 126" d="M472.871,174.124a15.439,15.439,0,1,0-14.156,16.623,15.439,15.439,0,0,0,14.156-16.623" fill="#c5192d"/>
    <path id="Path_127" data-name="Path 127" d="M378.636,95.864l-58.449,63.8a112.267,112.267,0,0,1,17.188,22.87l77.457-38.611a199.185,199.185,0,0,0-36.2-48.056" fill="#4c9f38"/>
    <path id="Path_128" data-name="Path 128" d="M435.715,95.922a15.439,15.439,0,1,0-7.216,20.607,15.439,15.439,0,0,0,7.216-20.607" fill="#4c9f38"/>
    <path id="Path_129" data-name="Path 129" d="M286.547,135.894a111.238,111.238,0,0,1,24.44,15.313l58.449-63.813a198.976,198.976,0,0,0-51.8-32.317Z" fill="#dda63a"/>
    <path id="Path_130" data-name="Path 130" d="M370.025,34.271a15.439,15.439,0,1,0,.787,21.82,15.439,15.439,0,0,0-.787-21.82" fill="#dda63a"/>
  </g>
</svg>
