<svg xmlns="http://www.w3.org/2000/svg" xmlns:xlink="http://www.w3.org/1999/xlink" width="872.265" height="695.782" viewBox="0 0 872.265 695.782"><defs><clipPath id="a"><rect x="275" y="173" width="872.265" height="695.782" fill="none"/></clipPath><clipPath id="b"><rect width="1397.265" height="1092.782" fill="none"/></clipPath></defs><g transform="translate(-275 -173)" clip-path="url(#a)" style="isolation:isolate"><g transform="translate(-595.743 70)"><g transform="translate(595.743 -70)"><g clip-path="url(#b)"><path d="M247.232,39.42V147.6a144.422,144.422,0,0,1,35.324,6.675L322.242,53.315a256.28,256.28,0,0,0-75.01-13.9" transform="translate(496.567 211.286)" fill="#e3243b"/><path d="M279.7,37.262A19.856,19.856,0,0,0,305.335,26.54,19.157,19.157,0,0,0,294.38,1.452a19.855,19.855,0,0,0-25.631,10.721A19.157,19.157,0,0,0,279.7,37.262" transform="translate(502.127 201.463)" fill="#e3243b"/><path d="M175.182,52.905l39.959,100.888a144.134,144.134,0,0,1,36.061-6.28V39.35a256.916,256.916,0,0,0-76.02,13.556" transform="translate(476.634 211.269)" fill="#19486a"/><path d="M202.384,38.584a19.5,19.5,0,0,0,19.637-19.364,19.714,19.714,0,0,0-39.42.144,19.508,19.508,0,0,0,19.783,19.22" transform="translate(478.686 201.448)" fill="#19486a"/><path d="M177.619,54.673a254.148,254.148,0,0,0-65.134,39.045l74.46,79.924a143.607,143.607,0,0,1,30.61-18.132Z" transform="translate(459.288 215.093)" fill="#00689d"/><path d="M132.876,67.417a19.165,19.165,0,0,0,11.19-24.988,19.849,19.849,0,0,0-25.531-10.953,19.164,19.164,0,0,0-11.189,24.988,19.847,19.847,0,0,0,25.529,10.953" transform="translate(457.491 208.973)" fill="#00689d"/><path d="M113.4,94.268a249.945,249.945,0,0,0-47.24,60.185L165.114,202.7a141.358,141.358,0,0,1,22.691-28.572Z" transform="translate(446.471 224.976)" fill="#56c02b"/><path d="M78.726,92.591a20.011,20.011,0,0,0-27.847-1.212,19.006,19.006,0,0,0-1.24,27.256,20.012,20.012,0,0,0,27.848,1.212,19.006,19.006,0,0,0,1.238-27.256" transform="translate(440.472 222.992)" fill="#56c02b"/><path d="M43.4,226.82l110.138,9.668a135.921,135.921,0,0,1,10.539-34.7L65.22,153.581A242.141,242.141,0,0,0,43.4,226.82" transform="translate(440.175 239.78)" fill="#0a97d9"/><path d="M140.409,169.535c-44.714-23.2-99.434-5.111-122.224,40.405S13.164,311.175,57.873,334.375s99.434,5.112,122.23-40.41,5.021-101.227-39.694-124.43" transform="translate(291.476 143.316)" fill="#0a97d9"/><path d="M152.374,234.29,42.336,224.647c-.345,5.339-.555,10.728-.555,16.159a243.087,243.087,0,0,0,7.493,59.909l106.277-29.841a136.84,136.84,0,0,1-3.346-30.068c0-2.176.074-4.353.17-6.516" transform="translate(439.727 257.517)" fill="#3f7e44"/><path d="M21.734,242.878A19.607,19.607,0,0,0,.1,260.088a19.4,19.4,0,0,0,17.585,21.17,19.608,19.608,0,0,0,21.628-17.21,19.4,19.4,0,0,0-17.583-21.17" transform="translate(428.168 262.041)" fill="#3f7e44"/><path d="M51.079,303.515A244.759,244.759,0,0,0,86.156,372.15l87.963-65.427a137.828,137.828,0,0,1-16.84-33.038Z" transform="translate(442.299 269.756)" fill="#bf8b2e"/><path d="M37.258,323.3a19.25,19.25,0,0,0-13.84,23.683,19.761,19.761,0,0,0,24.2,13.546,19.249,19.249,0,0,0,13.839-23.683,19.762,19.762,0,0,0-24.2-13.546" transform="translate(434.454 281.968)" fill="#bf8b2e"/><path d="M174.1,310.07,86.146,375.5a253.31,253.31,0,0,0,57.436,50.927l58.088-91.972A142.879,142.879,0,0,1,174.1,310.07" transform="translate(452.001 278.837)" fill="#fd9d24"/><path d="M80.93,393.029a19.024,19.024,0,0,0-4,27,19.992,19.992,0,0,0,27.585,3.92,19.025,19.025,0,0,0,4-27,19.992,19.992,0,0,0-27.585-3.919" transform="translate(448.367 298.586)" fill="#fd9d24"/><path d="M141.772,428.133a255.249,255.249,0,0,0,72.721,27.207l20.443-106.254a143.859,143.859,0,0,1-35.039-12.97Z" transform="translate(467.391 285.338)" fill="#dd1367"/><path d="M173.465,435.768a19.962,19.962,0,0,0-27.175,6.073,19.054,19.054,0,0,0,6.2,26.6,19.963,19.963,0,0,0,27.175-6.073,19.054,19.054,0,0,0-6.2-26.6" transform="translate(467.804 309.471)" fill="#dd1367"/><path d="M289.16,454.493,268.707,348.221a144.579,144.579,0,0,1-37.2.5L211.039,455.1a259.745,259.745,0,0,0,78.121-.6" transform="translate(486.554 288.359)" fill="#fd6925"/><path d="M249.047,448.5a19.694,19.694,0,0,0-23.114,15.249,19.314,19.314,0,0,0,15.579,22.623,19.694,19.694,0,0,0,23.114-15.249A19.316,19.316,0,0,0,249.047,448.5" transform="translate(490.573 313.297)" fill="#fd6925"/><path d="M302.324,334.96a144.009,144.009,0,0,1-33.859,13.465l20.476,106.366a254.467,254.467,0,0,0,71.4-27.882Z" transform="translate(502.442 285.049)" fill="#a21942"/><path d="M325.76,432.02A19.329,19.329,0,0,0,309.812,454.4a19.679,19.679,0,0,0,22.861,15.61,19.327,19.327,0,0,0,15.946-22.376,19.678,19.678,0,0,0-22.86-15.61" transform="translate(513.795 309.199)" fill="#a21942"/><path d="M420.305,373.356,332.271,308.38a143.022,143.022,0,0,1-26.8,24.674L363.49,425a252.809,252.809,0,0,0,56.816-51.641" transform="translate(512.68 278.415)" fill="#fcc30b"/><path d="M556.427,432.721c-27.439-44.3-86.364-58.444-131.611-31.591s-59.707,84.524-32.281,128.82,86.357,58.44,131.613,31.593,59.711-84.526,32.279-128.822" transform="translate(499.421 278.878)" fill="#fcc30b"/><path d="M349.362,273.415a138.526,138.526,0,0,1-15.445,31.129l88.23,65.14a244.528,244.528,0,0,0,33.393-66.4Z" transform="translate(520.55 269.688)" fill="#26bde2"/><path d="M458.638,326.94a20,20,0,0,0-27.646,3.486,19.021,19.021,0,0,0,3.562,27.06A20,20,0,0,0,462.2,354a19.021,19.021,0,0,0-3.562-27.06" transform="translate(546.27 282.044)" fill="#26bde2"/><path d="M352.5,235.58c.061,1.684.1,3.355.1,5.037a135.55,135.55,0,0,1-3.271,29.719l106.263,29.884a242.1,242.1,0,0,0,7.429-59.6c0-5.1-.173-10.164-.492-15.208Z" transform="translate(524.814 257.707)" fill="#ff3a21"/><path d="M474.814,244.157a19.781,19.781,0,0,0-24.505,13,19.231,19.231,0,0,0,13.284,23.986,19.781,19.781,0,0,0,24.505-13,19.229,19.229,0,0,0-13.283-23.986" transform="translate(552.524 262.186)" fill="#ff3a21"/><path d="M342.933,203.364a136.348,136.348,0,0,1,9.9,34.2L462.848,227.4a241.672,241.672,0,0,0-21.018-72.292Z" transform="translate(523.044 240.161)" fill="#c5192d"/><path d="M481.4,177.67a19.712,19.712,0,1,0-18.072,20.772A19.585,19.585,0,0,0,481.4,177.67" transform="translate(550.464 241.361)" fill="#c5192d"/><path d="M394.807,95.864l-74.62,79.72a140.591,140.591,0,0,1,21.943,28.578l98.887-48.248a249.446,249.446,0,0,0-46.21-60.05" transform="translate(516.751 225.374)" fill="#4c9f38"/><path d="M583.457,138.828c-22.31-45.37-77.973-64.449-124.326-42.612S393.287,172.534,415.6,217.9s77.969,64.449,124.322,42.612S605.77,184.2,583.457,138.828" transform="translate(532.4 105.83)" fill="#4c9f38"/><path d="M286.547,156.065a142.513,142.513,0,0,1,31.2,19.135l74.62-79.74a254.932,254.932,0,0,0-66.13-40.383Z" transform="translate(507.444 215.194)" fill="#dda63a"/><path d="M377.206,35.3a20.012,20.012,0,0,0-27.856.983,19,19,0,0,0,1,27.265,20.013,20.013,0,0,0,27.856-.982,19.005,19.005,0,0,0-1-27.266" transform="translate(523.359 208.969)" fill="#dda63a"/></g></g><path d="M128.643,65.139a.933.933,0,0,0-.692-.3H51.4a.937.937,0,0,0-.688.3.9.9,0,0,0-.191.711L63.38,142.2a.893.893,0,0,0,.882.735H80.047l1.08,12.437-6.643.006,15.455,15.171,15.493-15.2-6.641.006,1.079-12.417h16.063a.877.877,0,0,0,.877-.749l12.033-76.34a.88.88,0,0,0-.2-.711M99.056,126.266a12.4,12.4,0,0,1-9.134,3.128,12.407,12.407,0,0,1-9.145-3.128c-5.735-5.625-3.688-12.621-1.693-16.237,1.233-2.265,10.044-15.255,10.8-16.359v-.088s.013.017.035.041l.03-.041v.088c.738,1.1,9.563,14.094,10.8,16.359,2,3.615,4.04,10.612-1.692,16.237M123.34,81.2c-2.074-.9-4.7-.574-7.23.431-9.5,3.779-15.962,5.138-25.953,2.067-6.291-1.933-12.177-5.981-19.135-3.516-4.618,1.631-8.92,3.186-14.142,3.146L53.866,68.156h71.641Z" transform="translate(894.824 214.157)" fill="#fff"/><g transform="translate(1575.9 161.564)" opacity="0.999"><path d="M.355,0H7.049a.356.356,0,0,1,.356.356V16.52a.357.357,0,0,1-.357.357H.356A.356.356,0,0,1,0,16.521V.355A.355.355,0,0,1,.355,0Z" transform="translate(28.957 60.906)" fill="#fff"/><path d="M146.8,126.269H40.7a.5.5,0,0,0-.485.5v6.485a.483.483,0,0,0,.485.478H146.8a.487.487,0,0,0,.486-.478v-6.485a.5.5,0,0,0-.486-.5" transform="translate(-40.212 -41.655)" fill="#fff"/><path d="M146.8,135.762H40.7a.483.483,0,0,0-.485.478v6.5a.486.486,0,0,0,.485.478H146.8a.49.49,0,0,0,.486-.478v-6.5a.487.487,0,0,0-.486-.478" transform="translate(-40.212 -38.26)" fill="#fff"/><path d="M108.582,96.749A15.7,15.7,0,0,0,99.4,93.29a12.259,12.259,0,0,0-8.52,3.621.91.91,0,0,0-.284.665v.578a.92.92,0,0,0,.3.725.847.847,0,0,0,.747.174,1,1,0,0,0,.2-.05,1.438,1.438,0,0,0,.53-.337,8.579,8.579,0,0,1,4.25-.884,16.052,16.052,0,0,1,10.932,4.581l.1.088a1.28,1.28,0,0,0,.923.383,1.248,1.248,0,0,0,.9-.375l.087-.088a16.1,16.1,0,0,1,10.947-4.589,8.584,8.584,0,0,1,4.261.884,1.589,1.589,0,0,0,.585.36,1.316,1.316,0,0,0,.622.019.912.912,0,0,0,.669-.874V97.66a.92.92,0,0,0-.285-.657,12.3,12.3,0,0,0-8.624-3.717,15.577,15.577,0,0,0-9.159,3.464" transform="translate(-22.187 -53.455)" fill="#fff"/><path d="M99.154,64.956a.884.884,0,0,0-.463.559l-.107.353a.906.906,0,0,0,.14.8.868.868,0,0,0,.656.357.324.324,0,0,0,.133.007,1.17,1.17,0,0,0,.513-.132,2.669,2.669,0,0,1,.642-.072c.475,0,4.752.144,7.58,4.952l.037.068a1.091,1.091,0,0,0,.679.544,1.389,1.389,0,0,0,.338.052,1.1,1.1,0,0,0,.534-.133l.071-.033a10.569,10.569,0,0,1,4.733-1.172,7.2,7.2,0,0,1,4.839,1.549,1.217,1.217,0,0,0,.354.4,2.6,2.6,0,0,0,.345.167,1.166,1.166,0,0,0,.158.022.431.431,0,0,0,.1.007.925.925,0,0,0,.421-.106.9.9,0,0,0,.451-.544l.088-.312a.84.84,0,0,0,.037-.258.856.856,0,0,0-.124-.455,7.973,7.973,0,0,0-7.2-4.326,11.343,11.343,0,0,0-3.819.716c-.972-1.306-3.428-4.009-7.155-4.009a8.816,8.816,0,0,0-3.978,1.007" transform="translate(-19.344 -63.949)" fill="#fff"/><path d="M82.482,78.056l.03.478a.907.907,0,0,0,1.138.821,1.1,1.1,0,0,0,.156-.048,1.144,1.144,0,0,0,.458-.339,7.794,7.794,0,0,1,4.047-.918A13.111,13.111,0,0,1,96.7,81.223l.073.076a1.259,1.259,0,0,0,.819.308h.079a1.235,1.235,0,0,0,.832-.4l.072-.08a12.744,12.744,0,0,1,9.3-4.3,6.324,6.324,0,0,1,2.766.505,1.381,1.381,0,0,0,.551.286,1.248,1.248,0,0,0,.39.026,1.326,1.326,0,0,0,.223-.053.9.9,0,0,0,.6-.912l-.024-.415a.9.9,0,0,0-.319-.631,10.409,10.409,0,0,0-6.786-2.671,12.655,12.655,0,0,0-7.943,3.284A13.257,13.257,0,0,0,90.257,73.9a10.12,10.12,0,0,0-7.527,3.479.934.934,0,0,0-.247.679" transform="translate(-25.091 -60.725)" fill="#fff"/><path d="M42.938,89.8a11.5,11.5,0,0,1,11.5-11.5c.247,0,.49.022.736.037a15.554,15.554,0,1,1,29.493,7.963,17.386,17.386,0,0,1-3.772,34.36c-.7,0-23.21-.136-23.21-.136a12.3,12.3,0,0,1-8.958-20.746A11.488,11.488,0,0,1,42.938,89.8" transform="translate(-39.237 -63.949)" fill="#fff"/></g><g transform="translate(1511.588 631.313)"><path d="M32.136,0A32.14,32.14,0,1,0,64.272,32.138,32.138,32.138,0,0,0,32.136,0M29.757,12.7a2.391,2.391,0,0,1,4.773,0V23.731a2.392,2.392,0,0,1-4.773,0Zm2.385,35.911a16.718,16.718,0,0,1-4.968-32.681V22.15a10.942,10.942,0,1,0,9.908-.015V15.919a16.717,16.717,0,0,1-4.94,32.689" transform="translate(23.789 24.069)" fill="#fff"/><path d="M19.034,2.638A2.688,2.688,0,0,0,16.565,0H2.49A2.7,2.7,0,0,0,0,2.638,2.705,2.705,0,0,0,2.49,5.286H16.565a2.694,2.694,0,0,0,2.469-2.648" transform="translate(0 53.288)" fill="#fff"/><path d="M19.032,2.638A2.688,2.688,0,0,0,16.563,0H2.488A2.7,2.7,0,0,0,0,2.638,2.705,2.705,0,0,0,2.488,5.286H16.563a2.694,2.694,0,0,0,2.469-2.648" transform="translate(92.833 53.288)" fill="#fff"/><path d="M2.649,19.032a2.689,2.689,0,0,0,2.637-2.469V2.488A2.7,2.7,0,0,0,2.649,0,2.707,2.707,0,0,0,0,2.488V16.563a2.7,2.7,0,0,0,2.649,2.469" transform="translate(53.29 0)" fill="#fff"/><path d="M2.649,19.032a2.689,2.689,0,0,0,2.637-2.469V2.49A2.7,2.7,0,0,0,2.649,0,2.709,2.709,0,0,0,0,2.49V16.563a2.7,2.7,0,0,0,2.649,2.469" transform="translate(53.29 92.829)" fill="#fff"/><path d="M16.851,10.779a2.684,2.684,0,0,0-.833-3.516L3.8.273A2.7,2.7,0,0,0,.333,1.323,2.708,2.708,0,0,0,1.179,4.86l12.215,6.99a2.692,2.692,0,0,0,3.457-1.071" transform="translate(7.059 26.819)" fill="#fff"/><path d="M16.851,10.778a2.69,2.69,0,0,0-.833-3.516L3.8.272A2.7,2.7,0,0,0,.333,1.325a2.7,2.7,0,0,0,.845,3.533l12.215,6.99a2.693,2.693,0,0,0,3.458-1.071" transform="translate(87.629 72.931)" fill="#fff"/><path d="M1.339,16.853a2.689,2.689,0,0,0,3.514-.833l6.99-12.215A2.7,2.7,0,0,0,10.792.333a2.705,2.705,0,0,0-3.535.846L.267,13.393a2.693,2.693,0,0,0,1.072,3.46" transform="translate(72.927 7.057)" fill="#fff"/><path d="M1.339,16.852a2.687,2.687,0,0,0,3.514-.834L11.844,3.8A2.7,2.7,0,0,0,10.792.333a2.707,2.707,0,0,0-3.535.845L.267,13.392a2.7,2.7,0,0,0,1.072,3.46" transform="translate(26.818 87.625)" fill="#fff"/><path d="M10.815,16.832a2.686,2.686,0,0,0,1.055-3.456L4.855,1.176A2.7,2.7,0,0,0,1.327.335,2.7,2.7,0,0,0,.275,3.811l7.014,12.2a2.7,2.7,0,0,0,3.527.823" transform="translate(26.728 7.109)" fill="#fff"/><path d="M10.814,16.832a2.687,2.687,0,0,0,1.056-3.454L4.855,1.177A2.7,2.7,0,0,0,1.326.334,2.7,2.7,0,0,0,.275,3.812l7.014,12.2a2.694,2.694,0,0,0,3.525.82" transform="translate(73.005 87.583)" fill="#fff"/><path d="M.339,10.815A2.687,2.687,0,0,0,3.793,11.87l12.2-7.015a2.7,2.7,0,0,0,.846-3.528A2.7,2.7,0,0,0,13.36.273L1.16,7.288a2.694,2.694,0,0,0-.822,3.527" transform="translate(87.586 26.726)" fill="#fff"/><path d="M.338,10.816A2.687,2.687,0,0,0,3.792,11.87l12.2-7.016a2.691,2.691,0,0,0,.843-3.527A2.7,2.7,0,0,0,13.36.273L1.16,7.288a2.7,2.7,0,0,0-.822,3.528" transform="translate(7.112 73.003)" fill="#fff"/></g></g></g></svg>