<svg xmlns="http://www.w3.org/2000/svg" width="107.071" height="104.963" viewBox="0 0 107.071 104.963"><g transform="translate(0)" opacity="0.999"><path d="M.355,0H7.049a.356.356,0,0,1,.356.356V16.52a.357.357,0,0,1-.357.357H.356A.356.356,0,0,1,0,16.521V.355A.355.355,0,0,1,.355,0Z" transform="translate(28.957 60.906)" fill="#fff"/><path d="M146.8,126.269H40.7a.5.5,0,0,0-.485.5v6.485a.483.483,0,0,0,.485.478H146.8a.487.487,0,0,0,.486-.478v-6.485a.5.5,0,0,0-.486-.5" transform="translate(-40.212 -41.655)" fill="#fff"/><path d="M146.8,135.762H40.7a.483.483,0,0,0-.485.478v6.5a.486.486,0,0,0,.485.478H146.8a.49.49,0,0,0,.486-.478v-6.5a.487.487,0,0,0-.486-.478" transform="translate(-40.212 -38.26)" fill="#fff"/><path d="M108.582,96.749A15.7,15.7,0,0,0,99.4,93.29a12.259,12.259,0,0,0-8.52,3.621.91.91,0,0,0-.284.665v.578a.92.92,0,0,0,.3.725.847.847,0,0,0,.747.174,1,1,0,0,0,.2-.05,1.438,1.438,0,0,0,.53-.337,8.579,8.579,0,0,1,4.25-.884,16.052,16.052,0,0,1,10.932,4.581l.1.088a1.28,1.28,0,0,0,.923.383,1.248,1.248,0,0,0,.9-.375l.087-.088a16.1,16.1,0,0,1,10.947-4.589,8.584,8.584,0,0,1,4.261.884,1.589,1.589,0,0,0,.585.36,1.316,1.316,0,0,0,.622.019.912.912,0,0,0,.669-.874V97.66a.92.92,0,0,0-.285-.657,12.3,12.3,0,0,0-8.624-3.717,15.577,15.577,0,0,0-9.159,3.464" transform="translate(-22.187 -53.455)" fill="#fff"/><path d="M99.154,64.956a.884.884,0,0,0-.463.559l-.107.353a.906.906,0,0,0,.14.8.868.868,0,0,0,.656.357.324.324,0,0,0,.133.007,1.17,1.17,0,0,0,.513-.132,2.669,2.669,0,0,1,.642-.072c.475,0,4.752.144,7.58,4.952l.037.068a1.091,1.091,0,0,0,.679.544,1.389,1.389,0,0,0,.338.052,1.1,1.1,0,0,0,.534-.133l.071-.033a10.569,10.569,0,0,1,4.733-1.172,7.2,7.2,0,0,1,4.839,1.549,1.217,1.217,0,0,0,.354.4,2.6,2.6,0,0,0,.345.167,1.166,1.166,0,0,0,.158.022.431.431,0,0,0,.1.007.925.925,0,0,0,.421-.106.9.9,0,0,0,.451-.544l.088-.312a.84.84,0,0,0,.037-.258.856.856,0,0,0-.124-.455,7.973,7.973,0,0,0-7.2-4.326,11.343,11.343,0,0,0-3.819.716c-.972-1.306-3.428-4.009-7.155-4.009a8.816,8.816,0,0,0-3.978,1.007" transform="translate(-19.344 -63.949)" fill="#fff"/><path d="M82.482,78.056l.03.478a.907.907,0,0,0,1.138.821,1.1,1.1,0,0,0,.156-.048,1.144,1.144,0,0,0,.458-.339,7.794,7.794,0,0,1,4.047-.918A13.111,13.111,0,0,1,96.7,81.223l.073.076a1.259,1.259,0,0,0,.819.308h.079a1.235,1.235,0,0,0,.832-.4l.072-.08a12.744,12.744,0,0,1,9.3-4.3,6.324,6.324,0,0,1,2.766.505,1.381,1.381,0,0,0,.551.286,1.248,1.248,0,0,0,.39.026,1.326,1.326,0,0,0,.223-.053.9.9,0,0,0,.6-.912l-.024-.415a.9.9,0,0,0-.319-.631,10.409,10.409,0,0,0-6.786-2.671,12.655,12.655,0,0,0-7.943,3.284A13.257,13.257,0,0,0,90.257,73.9a10.12,10.12,0,0,0-7.527,3.479.934.934,0,0,0-.247.679" transform="translate(-25.091 -60.725)" fill="#fff"/><path d="M42.938,89.8a11.5,11.5,0,0,1,11.5-11.5c.247,0,.49.022.736.037a15.554,15.554,0,1,1,29.493,7.963,17.386,17.386,0,0,1-3.772,34.36c-.7,0-23.21-.136-23.21-.136a12.3,12.3,0,0,1-8.958-20.746A11.488,11.488,0,0,1,42.938,89.8" transform="translate(-39.237 -63.949)" fill="#fff"/></g></svg>