<svg xmlns="http://www.w3.org/2000/svg" xmlns:xlink="http://www.w3.org/1999/xlink" width="828.612" height="1576.307" viewBox="0 0 828.612 1576.307"><defs><clipPath id="a"><rect x="848" y="-37" width="828.612" height="1576.307" fill="none"/></clipPath><linearGradient id="b" x1="0.282" y1="0.248" x2="0.55" y2="0.956" gradientUnits="objectBoundingBox"><stop offset="0" stop-color="#56c02b" stop-opacity="0"/><stop offset="0.67" stop-color="#56c02b"/><stop offset="1" stop-color="#56c02b"/></linearGradient></defs><g transform="translate(-848 37)" clip-path="url(#a)" style="isolation:isolate"><path d="M233.08,771.477c5.41-8.685,12.814-12.245,20.787-15.662-5.553-8.258-9.4-16.374-4.556-28.618,4.7-11.818,15.947-16.089,26.91-18.367a62.676,62.676,0,0,1-1.851-9.255c-.57-6.549,2.421-12.957,5.838-18.082,4.129-6.549,9.4-8.828,15.092-10.251-.854-4.271-.285-8.97,2.848-14.1a27.184,27.184,0,0,1,5.98-6.692l.854-.712a30.6,30.6,0,0,1,6.977-3.987l3.56-1.424.712-.285h0a102.178,102.178,0,0,1,14.95-4.129c5.98-1.281,10.821-1.424,15.092-5.7,4.414-4.271,10.536-7.119,16.8-6.265,10.252,1.566,14.95,10.678,16.232,20.5a16.765,16.765,0,0,1,9.967,1c1-3.417,3.132-6.977,5.695-10.679l1.282-1.993-1.282,1.566a36.008,36.008,0,0,0-2.42-9.112l-.712-2.42c-18.224-.712-30.042-14.38-29.473-34.314h0a28.7,28.7,0,0,1,.712-7.689c-14.522-9.112-20.36-26.2-11.39-42a38.994,38.994,0,0,1,4.129-6.977c6.407-8.543,21.926-15.377,32.32-12.1,7.689,2.421,5.411,2.421,11.106-1.709a26.656,26.656,0,0,1,.427-4.841l.57-1.993,1.566-3.559,1-1.851a22.54,22.54,0,0,1,4.7-6.834l1.282.57,3.275-2.42.142-.285c-7.4-1.424-13.1-5.838-16.8-12.672-15.946-4.271-38.015-14.665-36.449-33.317,1-12.672,7.119-20.076,15.235-24.489-10.394-11.106-17.94-24.489-11.818-38.87a36.218,36.218,0,0,1,6.55-10.394h-.143l.854-1,.142-.142a24.3,24.3,0,0,1,6.692-4.841l1.139-.57a40.474,40.474,0,0,1,6.977-2.42l1.139-.142c1.994-.427,4.129-.712,6.265-1l3.844-.427c2.135-.142,4.271-.285,6.407-.57,3.132-11.818,14.238-17.086,27.052-18.794-1.139-13.953.57-27.622,14.523-35.168,12.244-6.692,25.913-5.553,37.446,1.566a21.841,21.841,0,0,1,21.357,1.139l1-1.709c4.414-5.41,8.258-9.112,14.807-11.248,10.679-3.56,19.933-2.136,27.622,4.414l1-1.424c2.278-3.132,4.984-6.834,7.973-9.255,7.689-5.838,16.659-8.97,26.2-6.549,11.533,2.705,21.784,14.95,25.771,26.056,4.129,11.39.284,19.221-4.129,29.473-2.278,5.268,4.841,8.828,10.109,12.1a33.63,33.63,0,0,1,4.7-6.407c3.56-3.844,8.4-5.7,13.384-7.4,2.848-1,6.407-.57,9.824-.427l.427-1.424c1-4.7,1.282-9.112,3.132-13.526l1.566-2.99c-7.262-9.682-12.244-29.757-2.705-39.154,12.387-12.387,34.6-18.225,51.257-19.221a63.841,63.841,0,0,1,16.659,1.281,74.044,74.044,0,0,1,9.681-2.42c1.994-7.973,5.838-16.516,8.116-23.066,3.844-10.678-1.708-21.5,11.39-27.764a34.272,34.272,0,0,1,12.672-2.99,33.127,33.127,0,0,1,8.115-4.841,11.135,11.135,0,0,1,.285-3.7c-1.282-6.407-2.421-12.957-.285-19.364,3.275-10.109,13.242-19.221,24.062-17.228,6.834,1.139,11.676,5.98,15.662,12.1l2.99-.285c12.672,3.559,15.662,12.529,11.96,25.486-2.278,8.116-.285,19.221,7.831,9.255,4.129-5.126,7.973-10.678,12.957-14.808,10.963-8.97,33.317-5.126,44.992.712,10.536,5.126,9.824,14.238,8.4,25.2a17.457,17.457,0,0,1-1.851,5.838c-3.7,6.692-.712,5.126,9.539-4.556a81.8,81.8,0,0,1,5.553-12.529c1.281-1.993,10.821-12.957,10.678-12.672a21.194,21.194,0,0,1,.427-5.98l.285-1a42.5,42.5,0,0,1,1.423-4.556l.57-1.139c.712-1.424,1.424-2.705,2.278-4.129l.712-1,2.99-3.844.284-.427h0a58.059,58.059,0,0,1,8.828-7.973v-.142c1.994-1.281,3.7-2.705,5.411-3.844,15.377-10.251,31.608-13.811,48.551-5.7,8.543,4.129,10.963,12.957,14.238,20.787a74.113,74.113,0,0,0,4.983-6.265c5.41-7.689,7.689-18.225,18.652-19.506,10.536-1.139,20.218,1.709,28.76,7.261a38.953,38.953,0,0,1,14.807-8.258c-2.99-7.119-5.268-14.1-2.278-22.923a40.379,40.379,0,0,1,21.072-24.2c9.4-4.7,22.211-8.258,32.463-4.414,7.119,2.705,10.536,9.4,17.94,11.818l2.421,1.139v-.142l3.417,1.993,1.994,1.139c1.851,1.281,3.844,2.563,5.838,3.7,4.841,2.848,2.99,6.834,7.974,5.553a48.5,48.5,0,0,1,5.98-.712h3.417l-.143.142,3.275.142a23.935,23.935,0,0,1-1.281-4.556c-1.994-16.943,10.963-29.615,25.628-32.89,4.271-12.957,12.1-24.632,27.337-23.493,13.384,1.139,21.642,10.109,22.069,21.926,4.841.142,8.4,1.424,11.675,4.983v-.142l.854.854a20.673,20.673,0,0,1,5.838-7.119l2.705-1.851-1-1.281-1.139-1.139-.143-.142-1-1.139-.143-.142-1.708-2.278-.57-.854L1258.5,79.8l-.427-.854-.57-3.132A31.075,31.075,0,0,1,1270.032,49.9c9.4-7.4,23.35-11.818,35.737-9.682a24.145,24.145,0,0,1,8.116-7.973,14.683,14.683,0,0,1,14.522-.427c2.278,1.139,3.7,4.129,5.553,5.7,4.983-2.563,9.112-4.129,16.089-2.705A19.651,19.651,0,0,1,1365,49.469c2.135,8.828.143,18.652-4.271,26.2-2.278,3.559-5.7,6.122-8.543,8.97-2.99,1.424-2.99,2.705.427,3.7a20.093,20.093,0,0,0,4.556,5.7,30.654,30.654,0,0,1,8.97-8.685c6.265-3.7,12.53-6.692,20.076-4.841,12.53,3.275,16.089,17.94,16.943,30.612a31.668,31.668,0,0,1,5.553,1.709h.142l.854.427a24.284,24.284,0,0,1,3.844,1.993l1.708,1.281,1.994,1.851,1.566,1.993,1.281,1.851,1.139,2.42.57,1.851.57,2.99.142,1.993V134.9l-.284,2.136-.712,3.56a63.091,63.091,0,0,1-2.135,6.122,73.049,73.049,0,0,1-8.97,14.95A21.725,21.725,0,0,1,1423.66,176.9c4.7-.854,8.543-.57,12.387,2.278l-.142-.142,1,.712a24.308,24.308,0,0,1,4.271-8.116l2.136-2.278h0l.142-.142-.57-.427-.285-.285-.427-.427-1.139-.854-.285-.142-3.7-3.275-.143-.142-1.851-2.278-.427-.569-1.281-2.99a32.113,32.113,0,0,1,6.976-28.191c7.831-9.255,20.645-16.658,33.174-17.37a21.822,21.822,0,0,1,6.407-9.539,15.094,15.094,0,0,1,14.238-3.56c2.42.57,4.556,3.132,6.692,4.271,4.129-3.7,7.973-6.122,15.235-6.265a18.6,18.6,0,0,1,17.513,11.106,35.919,35.919,0,0,1,1.139,26.625c-1.424,3.987-4.271,7.261-6.55,10.679-2.705,2.136-2.278,3.275,1.139,3.559a20.1,20.1,0,0,0,5.7,4.556,29.086,29.086,0,0,1,6.977-10.394c5.41-5.126,10.963-9.4,18.652-9.255,12.814.57,19.364,14.1,22.781,26.2a27.863,27.863,0,0,1,10.109,1.709l.569.142,2.848,1.424,1.709.854,1.993,1.566,1.709,1.709,1.281,1.709,1.424,2.42.854,1.851v3.844l.427,1.851a43.132,43.132,0,0,1,.285,4.414V185.3a40.706,40.706,0,0,1-.854,6.834c-2.848,13.526-9.966,26.91-18.937,37.446a31.049,31.049,0,0,1,6.977,13.811c5.98-2.848,11.818-6.834,18.367.57,5.7,6.549,6.55,15.519,12.1,22.354,7.831,9.682,7.4,22.211,3.132,33.6,5.98-.427,11.675,1.709,16.231,9.539a41.642,41.642,0,0,1,4.983,15.377,10.274,10.274,0,0,1,3.275,3.275c3.417,5.553,2.278,10.963-1,15.235a13.89,13.89,0,0,1,2.563,4.7,25.3,25.3,0,0,1,9.824,0c4.841,1.139,7.688,3.275,11.248,6.977l.854,1.139a15.625,15.625,0,0,1,15.235-2.42c7.688-5.98,17.513-7.831,26.767-3.844,10.394,4.271,12.529,13.811,12.957,23.92,8.97.427,17.37,3.417,20.5,11.533,1.566,0,3.275-.142,4.841-.142h2.42a43.1,43.1,0,0,1,4.414.285l1.281.142a16.461,16.461,0,0,1,4.556,1.139l1.566.57a17.409,17.409,0,0,1,4.129,2.42l.569.285.142.142.142.142.712.57h-.142a28.928,28.928,0,0,1,5.41,6.977c5.411,9.682.569,19.933-5.838,28.618,6.122,2.563,10.963,7.4,12.529,16.516,2.42,13.241-12.814,22.211-24.062,26.625a17.507,17.507,0,0,1-11.106,10.394l.143.142,2.42,1.424.854-.427a16.553,16.553,0,0,1,3.56,4.129l.285.427.569.854,1.709,3.132.427,1,.712,3.559c4.129,2.42,2.847,2.705,8.116.427,7.261-3.132,18.652.57,23.92,6.265a21.484,21.484,0,0,1,3.417,4.841c7.4,10.679,4.129,23.35-5.411,30.754a25.333,25.333,0,0,1,1,5.553h0c1.851,15.519-7.119,26.483-21.926,26.767a15.124,15.124,0,0,1,4.414,2.99c3.417,3.132,7.119,3.132,11.533,3.844a48.8,48.8,0,0,1,5.98,1.139h0c1.993.427,3.844,1,5.838,1.566v-.142l1.566.57,1.424.569a36.784,36.784,0,0,1,5.268,2.705l1.424,1.139a19.768,19.768,0,0,1,4.556,4.556,15.2,15.2,0,0,1,2.563,10.678,18.664,18.664,0,0,1,11.818,7.546c2.705,3.844,5.125,8.685,4.983,13.668a35.227,35.227,0,0,1-1.281,7.119c8.543,1.281,17.085,4.129,21.072,13.241,4.129,9.255,1.281,15.519-2.848,22.069,6.265,2.278,12.1,4.841,16.516,11.248,8.116,12.245-1.566,26.767-11.533,33.317-11.96,7.689-27.906,2.848-39.439-2.705-6.692-3.275-11.675-8.97-17.655-12.957-2.848-1.851-8.828,3.132-10.536,4.7-2.848,2.42-1.566,7.973-1.566,11.39.142,4.414-4.983,7.831-8.685,7.119-12.957-2.563-24.917-5.126-33.032-16.516l-1.424-1.851c-3.844,5.41,6.834,11.96,9.967,16.374,3.132,4.556,2.848,10.394-1.566,13.526a19.343,19.343,0,0,1-10.963,3.56c-7.261.569-5.7,1.424-2.99,7.831,3.987,9.112,2.278,18.367-4.414,25.344-9.824,10.536-26.767,6.265-38.158-1.709-9.824,4.556-19.506-2.42-26.91-11.248-2.848,2.278-5.7,4.271-8.543,6.407l-.142.569v.143l-.569,1.281a13.8,13.8,0,0,1-6.834,7.119,11.189,11.189,0,0,1-6.834.854,50.552,50.552,0,0,1-8.258,4.272c-2.135,13.526-10.394,26.625-22.5,30.9-16.8,5.98-40.009-.57-52.253-15.092a66.968,66.968,0,0,1-8.116,3.56l-.285.142h0c-7.688,2.42-14.95,1.851-18.367-4.841-8.116,1.424-16.658,2.848-23.35-2.42-10.821-8.116-6.55-21.927-.285-31.324-1.709,2.563-9.255-1.709-11.391-1.993l-2.42-.285-1.424.854c-4.129,3.56-8.116,7.689-12.814,10.251-9.112,4.983-16.089,5.268-22.354.854-6.692,6.265-14.238,11.39-22.5,10.679a51.944,51.944,0,0,0-7.831,1.139,28.962,28.962,0,0,1-9.682,4.7c-3.987,1.709-7.831,3.132-11.817,4.414a26.992,26.992,0,0,1-9.113,6.549,23.512,23.512,0,0,1-5.98,2.99c-1.424.427-2.848.712-4.272,1.139-1.566,5.553-3.275,10.821-7.4,15.092-4.983,5.268-10.109,6.692-14.665,5.126-8.543,10.109-21.072,16.8-30.042,8.4-4.841,2.563-9.967,4.7-14.95,5.126-5.98,7.831-11.533,16.089-16.659,24.347-6.549,14.238-12.53,28.476-20.5,41.717-1.851,3.275-3.7,6.692-5.553,10.109l-.285,1.566-1.708,2.848a101.165,101.165,0,0,1-8.97,16.943c-9.824,22.211-19.506,44.565-30.47,65.922a152.76,152.76,0,0,1-16.658,29.33c-4.129,6.407-8.258,12.672-12.814,18.652-3.7,4.841-7.689,9.4-11.533,13.953-5.838,8.828-11.96,17.8-19.933,22.781-5.553,5.41-11.39,10.536-17.37,15.662-7.546,7.4-15.377,14.807-22.781,22.5-3.417,3.417-6.692,6.977-10.109,10.678a83.46,83.46,0,0,0-8.116,12.672c-2.42,4.556-4.413,9.255-7.4,13.241a205.4,205.4,0,0,0-7.688,32.32c-1.851,11.248-4.984,21.927-7.689,32.747a59.37,59.37,0,0,0,0,7.119c.712,7.119,1.139,14.38,1.566,21.642,1.708,6.834,3.7,13.526,5.838,20.218,3.132-15.519,13.241-30.612,18.936-43.71l.712-.285a79.855,79.855,0,0,0,1.708-8.4c.142-1.281,1.994-1.139,2.278.285.854,9.4-.57,17.8-2.563,26.2,1.566-2.136,3.275-4.129,4.841-6.407l1.708,1.281c-2.848,8.116-4.984,15.947-9.4,23.066a62.39,62.39,0,0,0-3.417,10.678c-1.993,10.394-1,20.5-1.708,30.9l.57,3.417a68.976,68.976,0,0,0,5.98,14.665l.427.854c9.255,16.231,24.205,30.184,33.033,45.562,7.688,13.241,36.022,79.733,40.72,94.4,1.709,5.125,3.275,10.394,4.7,15.519l3.275-2.705.57-.712,9.4-1.424c1.851-.427,4.841-1.281,6.549-1h.142c1.709.569,3.417,1.139,5.268,1.708l7.973,2.563,1.566.427,1.994.712,2.99,1,1.139,2.136,1.282,1.708,1.851,2.135c1.566,1.709,2.99,3.56,4.414,5.411l2.421,2.563,3.559,3.559v.285l1.994,1.993h0l.142.142-.427.427h0c-2.99,5.126-5.553,10.536-8.116,15.946-3.56,1.851-7.262,3.275-10.821,4.7l-2.278,1-42.145-2.42-1.851-1.709-.712-.712-.854-.854-1.994-1.566-5.41,6.265h-.142c-5.98,1.566-12.1,2.705-18.225,3.7h-.285l-.854-.142h0l-51.684-8.4h0l-.712-.142h-.284l-3.275-.569-1.851-1.709-1.708-1.566-.854-.712c-1.851-1.566-5.41-3.7-6.549-5.7l-1.282,2.563-2.705,5.268h0l-2.421,1a67.9,67.9,0,0,1-7.4,3.132h-.57l-28.76-1.566h0l-2.42-.142-2.278-2.135-.284-.142c-1.139-1-3.417-2.42-4.129-3.7a24.546,24.546,0,0,1-1.282-8.543l-.142-.712,4.271-4.272,5.838-5.838c1.424-1.424,3.844-4.841,5.98-5.98l.427-.427h.57l5.98-.854c1.281-.142,3.56-.854,4.984-.712h.284l8.97,2.705.57.142,1.709.427,1.708.569h.285l1.709.57.427.712c1.708-2.135,4.129-6.834,5.98-8.685l.285-.427.427-.142.143-.142c1.851-.854,3.559-1.993,5.125-2.562l1.994-1,2.278.854h0l5.98,2.136,2.99,1.139a34.394,34.394,0,0,0,.712-6.692c-3.987-18.652-10.821-43.426-15.946-63.5-5.126-11.96-9.54-22.5-9.54-24.2l-1.281-1.139c-2.421-9.255-4.984-18.367-7.4-27.622a26.327,26.327,0,0,1-1.139-4.556c-3.7-9.255-7.262-19.079-8.97-27.337-1.424-2.278-2.99-4.841-4.271-7.119-6.549-9.824-12.1-21.642-12.244-33.317a19.072,19.072,0,0,1-.854-9.967,36.177,36.177,0,0,0,.142-5.553c-.57-6.549-1-13.1-1.139-19.791-1.281-9.824.143-21.357.854-29.757a58.345,58.345,0,0,1-3.987-21.072c-.284-11.39,1.994-22.781.57-34.313-1.708-12.672-4.556-24.917-6.265-37.446-3.559-26.483-20.218-46.558-25.771-72.329-2.136-9.967-4.129-19.506-6.549-28.618-9.824-27.764-29.33-51.684-47.982-73.041-8.116-9.4-13.668-19.648-18.225-30.469a242.961,242.961,0,0,1-18.652-44.992c-.57-1.993-1.281-4.271-1.993-6.834-10.679,11.533-25.2,18.652-35.88,8.685-11.248,5.838-23.208,10.109-34.883,2.563a15.674,15.674,0,0,1-4.841-4.841l-2.136.854c-8.685,2.42-20.93,1.139-23.351-9.967l-.284-1.993c-17.8,8.543-38.87,13.241-41.29-5.553-1-8.116,2.99-9.112-.854-15.8A79.526,79.526,0,0,1,769,832.13c-3.7.854-7.546,2.278-10.251,2.42-7.831.712-13.811-1.851-17.513-6.977-7.689,5.98-15.662,8.116-23.065,6.407A34.64,34.64,0,0,1,703.5,840.53v1.424a37.145,37.145,0,0,1-3.132,10.251,39.366,39.366,0,0,1-13.241,14.523,17.819,17.819,0,0,1-16.232,1.993c-7.546-2.848-6.265,3.56-9.4,10.963a34.83,34.83,0,0,1-29.046,21.784c-13.811,1.139-28.049,1.139-35.168-13.384-2.705-5.268-.854-12.245.285-17.513,1.139-4.271,1.851-9.682.712-14.1-.57-2.42-4.129-11.39-5.125-3.844-1.566,13.953-16.659,27.622-30.611,24.632-4.984-1-11.818-4.271-16.943-3.132-3.844.712-6.834,3.987-10.394,5.268-4.841,1.851-10.963,3.844-15.946,1.424a18.148,18.148,0,0,1-10.252-10.536,30.121,30.121,0,0,1-1.708-5.41c-1.281-6.265,6.265-14.665,1.281-19.221l-.284.569c-2.563,3.417-4.984,6.977-7.262,10.394-9.967,13.953-23.92,27.052-38.442,20.93-14.523,10.963-36.449,17.37-49.833,4.129-8.97-8.828-11.675-20.787-6.976-32.89,3.56-8.685,5.7-9.539-4.129-9.966-5.41-.285-9.681-1.139-14.523-4.271-5.98-3.844-6.692-11.675-2.563-17.513,3.987-5.98,17.513-15.092,11.96-21.784l-1.424,2.42c-10.109,15.235-25.771,19.079-42.429,23.208-5.125,1.281-11.818-2.99-11.818-8.828-.142-4.271,1-11.675-2.705-14.665-2.421-1.851-10.109-7.973-13.811-5.553-7.688,5.7-14.238,13.1-22.5,17.8-14.665,7.973-35.737,15.235-51.4,5.553C236.071,806.5,222.829,787.85,233.08,771.477Zm1513.639-191.5,1.566,2.136,1,1.281h2.278a26.3,26.3,0,0,1,2.135-8.116c-2.705-.285-5.7-1.709-8.116-2.99a30.49,30.49,0,0,1-.427,3.559A7.393,7.393,0,0,0,1746.719,579.976Zm-88.7,163.737,3.275-2.847-2.278-3.132-.285-.427C1656.878,739.156,1657.3,741.434,1658.017,743.712ZM1561.2,402.286h1.709a5.785,5.785,0,0,0-2.705-2.848c-2.99-1.566-4.7,1.281-5.98,4.7A29.7,29.7,0,0,1,1561.2,402.286ZM1187.024,1486.08l.57-.569-.142-.285-1.139-.142ZM998.229,811.2c.57,2.278,1,4.7,1.566,6.977v-.285a45.99,45.99,0,0,0-1.566-6.692Zm35.31-11.39c-7.831,5.553-16.373,8.543-25.771,5.268a50.108,50.108,0,0,1-9.255,5.838c2.705,10.679,5.268,21.5,8.543,31.893,5.553,15.519,13.1,30.9,22.5,43.568a75.77,75.77,0,0,1-1.708-18.794l.284-3.275a76.106,76.106,0,0,1,1.709-21.642c3.275-12.957,9.54-24.632,14.1-37.019C1039.235,805.79,1035.533,803.939,1033.539,799.81Zm11.391,5.98c-1,4.271-1.994,8.4-2.99,12.672,2.278-4.271,4.556-8.543,6.692-12.957Zm85.285,18.082-.712.142c.427,1.566.854,3.132,1.424,4.7A19.892,19.892,0,0,1,1130.215,823.872Zm3.417,24.774c-2.136-8.116-4.7-15.8-6.549-23.777l-.143-.427c-7.688.854-15.235.712-21.784-4.129a20.8,20.8,0,0,1-4.271-4.414,19.508,19.508,0,0,1-11.533-2.99c-6.834-4.271-6.692-11.675-4.983-18.936a47.168,47.168,0,0,1-9.112.427,79.059,79.059,0,0,1-10.963,6.122c-4.984,12.387-11.676,23.92-16.659,36.307-1.424,15.662-6.407,31.039-3.56,47.27.712,4.414,1.851,8.828,2.99,13.241,1,3.417,2.135,6.834,3.132,10.251a93.9,93.9,0,0,1,2.99,10.109,95.979,95.979,0,0,1,11.248,24.489c1.708,6.407,3.132,13.953,4.841,21.357,2.278,5.838,3.844,11.96,5.838,17.94,2.99,6.549,7.119,12.1,13.241,15.377l1.851,1c-2.99-8.258-7.262-17.513-6.122-26.2,1.139-9.255,5.411-15.235,10.394-21.642,6.55-13.384,17.086-24.917,26.2-35.737l2.421-2.99c1.139-1.993,2.136-4.129,3.132-6.265l-.142-1.424a51.245,51.245,0,0,1,2.848-11.818,51.3,51.3,0,0,1,1-9.4C1133.348,870.288,1136.623,861.033,1133.632,848.646Zm1.282,28.9.854-1.993a34.592,34.592,0,0,0,1.994-14.1A100.145,100.145,0,0,1,1134.914,877.55Zm24.489-48.836-1.566.712.143-.142a27.2,27.2,0,0,1-8.543,1.566,80.956,80.956,0,0,1,2.563,9.682c.712,4.556,1.282,8.97,1.851,13.668,2.99-6.265,6.692-11.96,9.967-18.225a64.646,64.646,0,0,0,4.271-10.963A88.192,88.192,0,0,1,1159.4,828.713Zm-21.784,212.858,1.424,2.99-.284-1.139v-.712l-1.424-2.99Zm-9.824-26.483a65.832,65.832,0,0,1,9.967,13.811c1.424,2.705,1.994,5.98,3.132,8.685,1.851,3.844,4.129,6.122,6.834,9.255,1.281,1.424.427,3.417-1.139,3.417h0l-.285,1,1.994-1.993c5.553-4.271,11.248-7.4,16.659-11.39,10.821-9.4,19.506-21.927,27.622-34.029,18.367-26.91,33.317-55.813,49.263-84.431,7.119-12.814,16.8-25.486,21.357-39.866,3.844-12.672,4.983-26.767,10.678-38.87,6.834-14.238,18.082-24.489,30.469-33.459l.57-3.7a48.3,48.3,0,0,1-9.112.427c-10.394,6.834-26.625,14.1-36.022,10.821-4.556,13.1-13.526,24.632-25.771,28.9-15.947,5.7-36.734,2.278-52.538-7.831a55.864,55.864,0,0,1-5.838,12.529c-6.407,14.1-14.522,27.195-22.781,40.436a59.293,59.293,0,0,1-1.708,10.251,39.124,39.124,0,0,1-2.99,9.255,103.352,103.352,0,0,1-8.116,15.8c-4.841,8.543-10.821,16.374-17.085,24.2a122.086,122.086,0,0,0-8.97,14.38l-.854,1.709c-1.851,9.255-1.282,18.509,3.56,27.622C1120.533,999.711,1123.951,1007.542,1127.795,1015.088Zm-96.961,32.89,1.139,2.848,1.994,2.99c-.712-1.851-1.424-3.559-1.994-5.553-2.278-9.4-4.556-18.51-7.262-27.337C1026.563,1030.038,1027.987,1039.293,1030.834,1047.978ZM944.979,890.791a143.567,143.567,0,0,0,14.38,24.916c18.225,19.221,37.161,36.592,50.687,60.227a91.956,91.956,0,0,1,7.831,17.085,96.686,96.686,0,0,1,5.553,12.387c5.7,15.092,6.265,31.181,11.248,46.558a51.362,51.362,0,0,0,3.417,8.116c7.261,9.539,14.665,18.937,18.651,30.612,3.417,10.251,4.841,20.645,5.7,31.323.57,3.275,1,6.692,1.566,9.967l1.708,1.424a84.866,84.866,0,0,1,3.417,19.648,116.509,116.509,0,0,1,10.821-20.93l1.281-3.275a139.628,139.628,0,0,1,23.351-35.31,82.113,82.113,0,0,0,7.261-19.506l.712-.142c1-4.556,1.281-8.828-.854-12.387-1.851-3.132-2.848-6.977-3.844-10.821-4.841-9.112-12.529-17.655-18.082-25.486-4.414-6.122-10.394-10.678-15.8-15.8a37.189,37.189,0,0,1-8.828-8.258c-5.41-7.4-7.973-16.089-9.967-25.059-2.848-12.1-8.828-22.781-12.387-34.741-1.851-6.549-2.42-13.668-4.129-20.36a278.989,278.989,0,0,0-17.8-23.066c-11.39-13.953-18.225-33.744-24.347-50.972a255.682,255.682,0,0,1-8.685-32.605,22.059,22.059,0,0,1-6.834-.285c-6.692,9.966-16.373,15.947-27.906,15.947-1.994,7.689-4.129,15.519-9.824,21.357a25.2,25.2,0,0,1-7.4,5.41C938.287,868.437,940.423,880.112,944.979,890.791ZM775.547,831.7l-1.709-1.139-3.559.285C772.13,831.134,773.839,831.418,775.547,831.7Z" transform="translate(-229.447 -30.1)" fill="url(#b)"/></g></svg>