<svg xmlns="http://www.w3.org/2000/svg" width="232.443" height="319.506" viewBox="0 0 232.443 319.506"><path d="M282.319,65.741a2.745,2.745,0,0,0-2.054-.9H53.154a2.565,2.565,0,0,0-2.61,3.046L88.7,298.663a2.663,2.663,0,0,0,2.618,2.221h46.83l3.205,37.591-19.707.019L167.5,384.348l45.966-45.954-19.7.02,3.2-37.528h47.654a2.617,2.617,0,0,0,2.6-2.264l35.7-230.732a2.7,2.7,0,0,0-.6-2.147M194.542,250.491a36.45,36.45,0,0,1-27.1,9.453,36.457,36.457,0,0,1-27.13-9.453c-17.016-17-10.943-38.147-5.022-49.074,3.657-6.847,29.8-46.106,32.047-49.444v-.265s.039.051.105.124l.089-.124v.265c2.19,3.338,28.371,42.6,32.028,49.444,5.932,10.927,11.986,32.074-5.018,49.074m72.046-136.2c-6.154-2.711-13.958-1.735-21.45,1.3-28.18,11.421-47.355,15.529-77,6.248-18.665-5.843-36.128-18.078-56.769-10.628-13.7,4.929-26.465,9.628-41.955,9.508L60.472,74.859H273.018Z" transform="translate(-50.508 -64.842)" fill="#26bde2"/></svg>