<?xml version="1.0" encoding="UTF-8" standalone="no"?>
<!DOCTYPE svg PUBLIC "-//W3C//DTD SVG 1.1//EN"
 "http://www.w3.org/Graphics/SVG/1.1/DTD/svg11.dtd">
<!-- Generated by graphviz version 5.0.0 (20220707.1540)
 -->
<!-- Title: dependencies Pages: 1 -->
<svg width="316pt" height="174pt"
 viewBox="0.00 0.00 316.00 173.80" xmlns="http://www.w3.org/2000/svg" xmlns:xlink="http://www.w3.org/1999/xlink">
<g id="graph0" class="graph" transform="scale(1 1) rotate(0) translate(4 169.8)">
<title>dependencies</title>
<polygon fill="white" stroke="transparent" points="-4,4 -4,-169.8 312,-169.8 312,4 -4,4"/>
<text text-anchor="middle" x="154" y="-8.2" font-family="sans-serif" font-size="14.00">dependencies</text>
<g id="clust1" class="cluster">
<title>cluster_VandPageModule</title>
<polygon fill="none" stroke="black" stroke-dasharray="1,5" points="8,-32.8 8,-157.8 300,-157.8 300,-32.8 8,-32.8"/>
</g>
<g id="clust2" class="cluster">
<title>cluster_VandPageModule_declarations</title>
<polygon fill="none" stroke="black" points="202,-40.8 202,-92.8 292,-92.8 292,-40.8 202,-40.8"/>
</g>
<g id="clust4" class="cluster">
<title>cluster_VandPageModule_imports</title>
<polygon fill="none" stroke="black" points="16,-40.8 16,-92.8 194,-92.8 194,-40.8 16,-40.8"/>
</g>
<!-- VandPage -->
<g id="node1" class="node">
<title>VandPage</title>
<polygon fill="#ffffb3" stroke="black" points="283.54,-84.8 210.46,-84.8 210.46,-48.8 283.54,-48.8 283.54,-84.8"/>
<text text-anchor="middle" x="247" y="-62.6" font-family="Times,serif" font-size="14.00">VandPage</text>
</g>
<!-- VandPageModule -->
<g id="node2" class="node">
<title>VandPageModule</title>
<polygon fill="#8dd3c7" stroke="black" points="227.59,-149.8 224.59,-153.8 203.59,-153.8 200.59,-149.8 110.41,-149.8 110.41,-113.8 227.59,-113.8 227.59,-149.8"/>
<text text-anchor="middle" x="169" y="-127.6" font-family="Times,serif" font-size="14.00">VandPageModule</text>
</g>
<!-- VandPage&#45;&gt;VandPageModule -->
<g id="edge1" class="edge">
<title>VandPage&#45;&gt;VandPageModule</title>
<path fill="none" stroke="black" d="M218.89,-84.91C218.89,-84.91 218.89,-103.79 218.89,-103.79"/>
<polygon fill="black" stroke="black" points="215.39,-103.79 218.89,-113.79 222.39,-103.79 215.39,-103.79"/>
</g>
<!-- VandPageRoutingModule -->
<g id="node3" class="node">
<title>VandPageRoutingModule</title>
<polygon fill="#8dd3c7" stroke="black" points="186.21,-84.8 183.21,-88.8 162.21,-88.8 159.21,-84.8 23.79,-84.8 23.79,-48.8 186.21,-48.8 186.21,-84.8"/>
<text text-anchor="middle" x="105" y="-62.6" font-family="Times,serif" font-size="14.00">VandPageRoutingModule</text>
</g>
<!-- VandPageRoutingModule&#45;&gt;VandPageModule -->
<g id="edge2" class="edge">
<title>VandPageRoutingModule&#45;&gt;VandPageModule</title>
<path fill="none" stroke="black" d="M148.28,-84.91C148.28,-84.91 148.28,-103.79 148.28,-103.79"/>
<polygon fill="black" stroke="black" points="144.78,-103.79 148.28,-113.79 151.78,-103.79 144.78,-103.79"/>
</g>
</g>
</svg>
