<?xml version="1.0" encoding="UTF-8" standalone="no"?>
<!DOCTYPE svg PUBLIC "-//W3C//DTD SVG 1.1//EN"
 "http://www.w3.org/Graphics/SVG/1.1/DTD/svg11.dtd">
<!-- Generated by graphviz version 5.0.0 (20220707.1540)
 -->
<!-- Title: dependencies Pages: 1 -->
<svg width="330pt" height="174pt"
 viewBox="0.00 0.00 330.00 173.80" xmlns="http://www.w3.org/2000/svg" xmlns:xlink="http://www.w3.org/1999/xlink">
<g id="graph0" class="graph" transform="scale(1 1) rotate(0) translate(4 169.8)">
<title>dependencies</title>
<polygon fill="white" stroke="transparent" points="-4,4 -4,-169.8 326,-169.8 326,4 -4,4"/>
<text text-anchor="middle" x="161" y="-8.2" font-family="sans-serif" font-size="14.00">dependencies</text>
<g id="clust1" class="cluster">
<title>cluster_EnergiPageModule</title>
<polygon fill="none" stroke="black" stroke-dasharray="1,5" points="8,-32.8 8,-157.8 314,-157.8 314,-32.8 8,-32.8"/>
</g>
<g id="clust4" class="cluster">
<title>cluster_EnergiPageModule_imports</title>
<polygon fill="none" stroke="black" points="120,-40.8 120,-92.8 306,-92.8 306,-40.8 120,-40.8"/>
</g>
<g id="clust2" class="cluster">
<title>cluster_EnergiPageModule_declarations</title>
<polygon fill="none" stroke="black" points="16,-40.8 16,-92.8 112,-92.8 112,-40.8 16,-40.8"/>
</g>
<!-- EnergiPage -->
<g id="node1" class="node">
<title>EnergiPage</title>
<polygon fill="#ffffb3" stroke="black" points="104.03,-84.8 23.97,-84.8 23.97,-48.8 104.03,-48.8 104.03,-84.8"/>
<text text-anchor="middle" x="64" y="-62.6" font-family="Times,serif" font-size="14.00">EnergiPage</text>
</g>
<!-- EnergiPageModule -->
<g id="node2" class="node">
<title>EnergiPageModule</title>
<polygon fill="#8dd3c7" stroke="black" points="207.08,-149.8 204.08,-153.8 183.08,-153.8 180.08,-149.8 82.92,-149.8 82.92,-113.8 207.08,-113.8 207.08,-149.8"/>
<text text-anchor="middle" x="145" y="-127.6" font-family="Times,serif" font-size="14.00">EnergiPageModule</text>
</g>
<!-- EnergiPage&#45;&gt;EnergiPageModule -->
<g id="edge1" class="edge">
<title>EnergiPage&#45;&gt;EnergiPageModule</title>
<path fill="none" stroke="black" d="M93.61,-84.91C93.61,-84.91 93.61,-103.79 93.61,-103.79"/>
<polygon fill="black" stroke="black" points="90.11,-103.79 93.61,-113.79 97.11,-103.79 90.11,-103.79"/>
</g>
<!-- EnergiPageRoutingModule -->
<g id="node3" class="node">
<title>EnergiPageRoutingModule</title>
<polygon fill="#8dd3c7" stroke="black" points="297.7,-84.8 294.7,-88.8 273.7,-88.8 270.7,-84.8 128.3,-84.8 128.3,-48.8 297.7,-48.8 297.7,-84.8"/>
<text text-anchor="middle" x="213" y="-62.6" font-family="Times,serif" font-size="14.00">EnergiPageRoutingModule</text>
</g>
<!-- EnergiPageRoutingModule&#45;&gt;EnergiPageModule -->
<g id="edge2" class="edge">
<title>EnergiPageRoutingModule&#45;&gt;EnergiPageModule</title>
<path fill="none" stroke="black" d="M167.72,-84.91C167.72,-84.91 167.72,-103.79 167.72,-103.79"/>
<polygon fill="black" stroke="black" points="164.22,-103.79 167.72,-113.79 171.22,-103.79 164.22,-103.79"/>
</g>
</g>
</svg>
